<svg id="Capa_1" data-name="Capa 1" xmlns="http://www.w3.org/2000/svg" viewBox="0 0 1024 768">
	<path fill="#ffffff" d="M294.27,431.87c4.49,0,8.84.3,13.1-.17,1.37-.15,3.15-2.13,3.66-3.64,5.39-15.91,10.56-31.91,15.81-47.87.56-1.69,1.23-3.33,2.38-6.42,2.22,6.56,4,11.76,5.75,17,4,12.34,8,24.67,11.82,37.09.94,3.1,2.29,4.35,5.55,4.11,3.76-.27,7.56-.06,12.06-.06-4-12.51-7.71-24.33-11.57-36.51H430.5V463H263.34V305.94c1.66-.11,3.26-.31,4.86-.31q72,0,144,0c13.43,0,18.74,5.35,18.76,18.8q0,25,0,50v5.25c-1.84.14-3.27.33-4.71.33-24.82,0-49.65-.1-74.47,0-3.39,0-5-.87-5.93-4.26-2-7.35-4.51-14.57-7.06-22.62h59.83V338.23a31.89,31.89,0,0,0-3.71-.41c-22,0-44,.06-66-.08-3,0-4.4.9-5.34,3.77Q309,385.87,294.28,430.14A8.48,8.48,0,0,0,294.27,431.87Z"/>
	<path fill="#ffffff" d="M531.53,434.15c-12.25,0-21.39-8.58-21.46-20.19a21,21,0,0,1,21-20.91c11.86-.12,21.29,8.86,21.39,20.38C552.56,425.13,543.47,434.14,531.53,434.15Zm13-20.34c0-7.78-5.75-13.78-13.32-13.81s-13.32,6-13.35,13.81a13.34,13.34,0,1,0,26.67,0Z"/>
	<path fill="#ffffff" d="M702.19,434.15c-11.79,0-20.69-8.73-20.85-20.4-.15-11.4,9.43-20.66,21.3-20.6s21.36,9.39,21.17,20.76C723.62,425.45,714.31,434.17,702.19,434.15Zm.36-34.12a13.64,13.64,0,0,0,.22,27.28,13,13,0,0,0,13.1-13.42C715.83,406,710.14,400.07,702.55,400Z"/>
	<path fill="#ffffff" d="M666.81,420l9.11,13c-5.45,1.34-9.54.9-12.17-4.57-2.7-5.63-6.6-9.66-14.34-6.79V433.2h-7.28v-39c7.21,0,14.36-.44,21.42.14,5.75.47,9.77,4,11.17,9.91,1.27,5.34-1,10.72-6,14.23C668.23,418.9,667.73,419.3,666.81,420Zm-17.09-6c4,0,7.86.33,11.58-.1a6.1,6.1,0,0,0,5.8-6.35c.11-4-2.13-6.35-5.85-6.75s-7.5-.09-11.53-.09Z"/>
	<path fill="#ffffff" d="M561.1,393.91c5.72,0,10.87,0,16,0,9.08.09,14,2.94,16,9.13,2.06,6.47,0,11.43-7.52,17.16L594.49,433c-5.13,1.28-8.89,1.08-11.58-4-2.82-5.28-5.89-11-14.4-7.34-.15,3.37-.34,7.4-.54,11.62H561.1Zm7.19,20.19c4.45,0,7.94.24,11.39-.07,3.74-.33,6.13-2.5,6.31-6.46s-2.14-6.37-5.84-6.8-7.54-.09-11.61-.09c-.09,1.67-.22,3.11-.24,4.56C568.27,408,568.29,410.83,568.29,414.1Z"/>
	<path fill="#ffffff" d="M630.09,410v6.63H610.67v10.24h22.39v6.28H603.22v-39h29.12v6H610.48V410Z"/>
	<path fill="#ffffff" d="M503.71,411.39v6.72H484.22v15.08h-7.75V394h29v6.1H484.32v11.28Z"/>
	<path fill="#ffffff" d="M524.18,337.61c9.38,10,16.93,21.66,27,33.26,0-4.55,0-7.86,0-11.17,0-6.16,0-12.31.15-18.46,0-1,1.15-1.9,1.77-2.85.57.83,1.63,1.66,1.63,2.5.11,11.94.08,23.88.08,35.82l-1.39,1c-1.44-1.14-3.17-2.05-4.29-3.45-6.42-8.07-12.68-16.25-19-24.38-1.08-1.38-2.31-2.64-4.38-5,0,9.33,0,17.39,0,25.45a20.79,20.79,0,0,1-.12,4.47c-.19.85-1.21,1.52-1.85,2.28-.52-.71-1.49-1.41-1.49-2.12-.09-12.09-.07-24.17-.07-36.25Z"/>
	<path fill="#ffffff" d="M568,377V338c6.87.41,13.59.1,20,1.38,9.17,1.83,14.88,10.39,14.33,19.65s-7,16.72-16.55,17.82C580.08,377.51,574.23,377,568,377Zm3.3-3c4.6,0,8.76.3,12.87-.06a15.84,15.84,0,0,0,14.59-14.66c.7-7.39-4.06-14.93-11.48-16.67-5.05-1.19-10.42-1.05-16-1.54Z"/>
	<path fill="#ffffff" d="M633.42,362.59l10.34,14.06-.84,1.14c-1.48-.89-3.2-1.54-4.39-2.72a17.56,17.56,0,0,1-3.83-5.21c-3.79-8.59-10.87-7.42-18.48-6.62,0,3.86.12,7.49-.08,11.11-.06,1-1.09,1.95-1.68,2.93-.53-1-1.51-2.06-1.52-3.09-.11-11.65-.07-23.29-.07-36.35,7.88.6,15.46.62,22.81,1.93,4.76.85,7.26,5,7.51,10.05s-1.76,9-6.58,11.27C635.71,361.5,634.82,361.93,633.42,362.59Zm-16.92-3.44c5.77,0,11.09.47,16.28-.14,4.59-.55,7.31-4.54,7.05-8.88-.27-4.59-2.92-7.64-7.34-8.08-5.19-.51-10.47-.12-16-.12Z"/>
	<path fill="#ffffff" d="M654.33,376.86V339.05c8.85-1.91,25.83-1,27.92,2.15H657.94V356c5.5,0,11.07-.12,16.63.07,1.49,0,2.94,1,4.41,1.6-1.53.5-3.05,1.38-4.6,1.43-5.3.18-10.6.07-16.38.07v14.58c8,.42,16,.84,24,1.32a11.9,11.9,0,0,1,.18,1.82Z"/>
	<path fill="#ffffff" d="M512.11,377.76c-1.27-1.61-3.17-3-3.68-4.86-1.38-4.86-4.14-6.55-9.09-6a51.75,51.75,0,0,1-11.47,0c-4-.42-6,1.15-7.41,4.82-.82,2.19-1,5.9-5.76,5.05,5.69-12.39,11.17-24.43,16.8-36.41.45-1,2.13-2.18,2.88-2a5.46,5.46,0,0,1,3,2.76c5.47,11.73,10.79,23.53,16.16,35.32Zm-17.9-35.62c-3.55,7.78-6.58,14.44-9.79,21.5h19.43C500.66,356.54,497.71,349.94,494.21,342.14Z"/>
	<path fill="#ffffff" d="M715.46,344.33c-1.43-.55-2.83-1.46-4.29-1.59-4.2-.36-8.54-1-12.58-.28-1.79.33-4,3.72-4.16,5.85-.12,1.81,2.07,4.55,4,5.54,3.17,1.67,6.92,2.24,10.4,3.34,6.62,2.09,9.62,5.7,9.05,10.8a10.47,10.47,0,0,1-11,9.55c-5.25-.15-10.46-2.33-15.61-3.88-.73-.22-1-2-1.46-3,1.11.06,2.5-.28,3.29.26,4.63,3.14,9.7,5.1,15,3a11.45,11.45,0,0,0,6-6.27c1.22-3.6-1.86-5.67-5.1-6.73-3.63-1.18-7.36-2.06-11-3.32-5.3-1.86-7.76-5.28-7.3-10,.52-5.18,3.73-8.6,8.59-8.89s9.71.95,14.52,1.8c1,.18,1.73,1.64,2.59,2.51Z"/>
	<path fill="#ffffff" d="M666.94,335.37c2.38-6.85,3.64-7.72,8.81-6.64Z"/>
</svg>