<svg id="Capa_1" data-name="Capa 1" xmlns="http://www.w3.org/2000/svg" viewBox="0 0 1024 768"><defs><style>.cls-1{fill:#050505;}</style></defs><path class="cls-1" d="M612.28,403.21a36,36,0,0,0,5,0c3-.41,4.54.49,6,3.43,2.64,5.37,14.15,6.87,18.76,2.88,3.07-2.65,2.47-6.46-1.47-8.42-3.46-1.72-7.29-2.26-11-3.06a65.39,65.39,0,0,1-13.35-3.94c-14.13-6.41-16.21-24.29-3.95-33.85,10.83-8.44,32-8.47,42.72.06a22.14,22.14,0,0,1,4.34,4.77c2.09,3,4.67,6.88,3.21,10-1.24,2.68-5.72.59-8.73,1-1.81.22-3.67,0-5.49.09-2.75.17-4.59-.09-6.14-3.25-2.36-4.79-12.44-5.15-16-1.16-2.23,2.51-1.52,5.5,1.85,7.35,3.11,1.71,6.63,2.1,10,2.83A84.37,84.37,0,0,1,652.37,386c16.37,6.67,14.48,27,3.83,34.71-11.26,8.21-33.77,8.44-44.92.12-4.63-3.45-7.18-8.1-8.37-13.71-.67-3.15.13-4.31,3.38-3.94a54.36,54.36,0,0,0,6,0Z"/><path class="cls-1" d="M394.39,382.3a33.18,33.18,0,0,0-4,0c-3.47.42-5.6-.31-6.86-4.24-1.56-4.81-5.75-7.05-10.84-7.44a12.81,12.81,0,0,0-12.41,5.87c-4.52,6.69-4.57,21-.13,27.73,3.06,4.62,7.52,6.28,12.9,5.95,5.12-.31,9-2.72,10.82-7.47,1.09-2.86,2.58-3.7,5.44-3.54a75.92,75.92,0,0,0,11-.05c3.32-.29,4,.89,3.46,4-2.14,13.25-13.76,23-28.73,23.85-16.35.95-28.84-5.58-34.8-18.21-6.57-13.92-4.16-34.26,5.69-44.61C355.59,354,367.8,352,380.87,355c11.36,2.63,19.13,9.61,22.36,21.12,1.71,6.1,1.69,6.11-4.35,6.11h-4.49Z"/><path class="cls-1" d="M552.24,403.34c-5.16,0-10.33.18-15.48-.07-3.2-.15-3.23,1.35-2.64,3.63,1.52,5.91,10.25,9.05,15.06,4.58,3.5-3.25,7-3,10.86-3.14a35.59,35.59,0,0,1,4,0c1.92.18,4.65-1.14,5.57.51,1.16,2.08-.75,4.42-1.89,6.39a20.69,20.69,0,0,1-10.4,9,35,35,0,0,1-25.85.5c-11.72-4.29-17.24-15.17-15.65-30.19,1.25-11.81,9.49-20.44,21.4-22.39,19.71-3.22,33.86,8.32,33.81,27.33,0,3.43-1.14,4.28-4.3,4.15-4.82-.21-9.65,0-14.49,0ZM543,393.25c2.32,0,4.66-.16,7,0,3.35.28,3.06-1.32,2.11-3.53-2.59-6-11.44-7.11-15.8-1.9-1.15,1.37-2.68,3.06-1.87,4.81.64,1.41,2.69.46,4.11.56S541.51,393.25,543,393.25Z"/><path class="cls-1" d="M853.17,403.4c-5.16,0-10.32.14-15.48,0-2.84-.11-3,1.24-2.5,3.36,1.42,6,10.17,9.26,14.95,4.82,3.36-3.12,6.66-2.94,10.37-3,1.66,0,3.33,0,5-.07,6.37-.24,6.75.34,3.83,5.91a19.28,19.28,0,0,1-1.29,2.14c-6.12,8.84-19.71,12.66-32.58,9.17-10.65-2.89-17.43-11.11-18.66-22.16-2.73-24.66,16.49-35.73,36.86-30.47,12.06,3.11,19.91,15.7,18.34,28.09-.31,2.43-1.58,2.53-3.34,2.52H853.17Zm-9-9.87c2.31,0,4.64-.14,6.94,0,2.93.23,3-1,2.06-3.22a8.43,8.43,0,0,0-7.45-5.65,9.22,9.22,0,0,0-9.31,4.39c-.68,1.05-1.42,2.58-1.14,3.63.44,1.65,2.24.7,3.44.77C840.57,393.6,842.39,393.52,844.21,393.53Z"/><path class="cls-1" d="M410.67,398.94c.06-17,10.66-27.18,28.15-27.09,17,.08,27.93,10.93,27.82,27.71C466.53,416,455,427,438.2,426.83,421,426.62,410.61,416.1,410.67,398.94Zm18.42.1a19.26,19.26,0,0,0,.82,6.4c1.27,4.3,4,7,8.55,7s7.2-3,8.46-7.16a21.72,21.72,0,0,0,.71-9.38c-.93-6.43-4.22-9.92-9.23-9.84s-8.35,3.73-9.14,10C429.13,397.05,429.14,398.05,429.09,399Z"/><path class="cls-1" d="M739.28,371.86c17.24,0,27.9,10.51,27.91,27.48,0,16.67-11.17,27.63-28.07,27.52s-28.06-11-28-27.65S722.09,371.84,739.28,371.86Zm9.37,27.07c0-8.05-3.52-12.85-9.37-12.87S730,390.94,729.94,399c0,8.61,3.27,13.4,9.26,13.38C745,412.3,748.69,407.12,748.65,398.93Z"/><path class="cls-1" d="M695.78,398.31c0,1.83,0,3.66,0,5.49.1,7.27.1,7.28,7.37,8,.49,0,1.4,0,1.4.06.43,3.94,1.15,7.89,1,11.82-.08,2.7-3,1.94-4.77,2.3a17.08,17.08,0,0,1-2.49.16c-16.14.85-21.2-3.9-21.22-19.92,0-5.33-.15-10.66.1-16,.14-2.92-.86-3.94-3.63-3.43-3.62.66-4.78-1-4.29-4.4a13,13,0,0,0,0-4c-.68-4.18.47-6.41,5.18-5.44,2.17.45,2.73-.6,2.88-2.74.24-3.52-1.88-8.22,1.16-10.24,2.45-1.63,6.77-.46,10.26-.52,7-.13,7.35-.1,6.91,7.08-.33,5.27.93,7.8,6.58,6.64,2.68-.56,3.59.78,3.42,3.3a21.06,21.06,0,0,0,0,4.49c.71,4.74-1,6.81-5.92,5.85-3.19-.62-4.47.65-4.08,4a64.47,64.47,0,0,1,.06,7.49Z"/><path class="cls-1" d="M493.71,381.25c3.19-6.77,7.88-9.46,14.37-9.36,2.5,0,3.79.74,3.56,3.4-.08,1,0,2,0,3,0,3.16,1,6.84-.28,9.34-1.43,2.79-5.31.23-8.14.84-6.26,1.33-9.3,4.35-9.44,10.84-.16,7.48-.23,15,0,22.46.09,3.14-.89,4.14-3.94,3.88-4.62-.39-10.56,1.84-13.54-.85s-.91-8.75-1-13.32c-.18-11.49,0-23-.18-34.45-.06-3.07.69-4.31,3.83-3.95a47.85,47.85,0,0,0,5.49.05C492.37,373.13,492.37,373.13,493.71,381.25Z"/><path class="cls-1" d="M794.1,382.17c2.93-7.52,7.65-10.31,14.35-10.17,2.68.06,4.08.81,3.78,3.72-.13,1.31,0,2.66,0,4-.05,2.81.82,6.23-.48,8.27s-4.8,0-7.36.3c-6.45.73-9.93,4.13-10.07,10.74-.17,7.64-.15,15.29,0,22.94.05,2.72-.6,3.86-3.56,3.68-4-.25-8-.14-12,0-2.18.07-2.84-.73-2.83-2.89q.12-23.44,0-46.89c0-2.23.77-3,2.9-2.79,2,.15,4,0,6,.05C792.75,373.12,792.75,373.11,794.1,382.17Z"/><path class="cls-1" d="M167.67,328c0-3.95.07-7.89.1-11.84L193,301.89q.18,4.07.34,8.15a7.09,7.09,0,0,0,.15,4,22.18,22.18,0,0,0-.05,8,20.56,20.56,0,0,0-.27,2.46c-.05,28.12,0,56.25-.21,84.36,0,3.2,1.58,4.3,3.8,5.59Q223.38,430,250,445.66c1,.62,2,1.91,3.83,1.23,0-7.19,0-14.47,0-21.74,0-1.56-.61-3.31,1.32-4.43,7.7-4.47,15.35-9,24-14.1v43.59q0,3.42,0,6.84l0,7c1.19,7.66-5.39,8.86-9.87,11.61s-9,7.31-14.76,2.2a6.73,6.73,0,0,0-3.54-1.95l-9.13-5.61c-2.38-.38-3.4-3.19-5.92-3.33-21.29-12.57-42.53-25.23-63.94-37.61-3.21-1.85-4.22-3.74-4.21-7.34.1-26.8,0-53.6-.11-80.4,0-1.86,0-3.71,0-5.57C167.66,333.39,167.67,330.7,167.67,328Z"/><path class="cls-1" d="M138.77,343.17l5,2.91a12.86,12.86,0,0,0,5,3l2.26,1.3c2.85,1.46,3.46,3.79,3.45,6.91-.07,22.28.42,44.56-.08,66.82-.17,7.6,2.15,11.66,8.83,15.4,20.39,11.42,40.3,23.71,60.39,35.66l.25,4.94L224,489c-1.13,5,1.31,10.25-1.12,15.16-1.1-.74-2.16-1.54-3.29-2.21Q176.25,476.24,133,450.53c-1.94-1.14-3.43-2.09-3.42-4.82.09-34.61.05-69.21.06-103.82,0-1.11-.4-2.49.78-3.2,1.42-.86,1.91.77,2.81,1.33C135,341.16,136.57,342.72,138.77,343.17Z"/><path class="cls-1" d="M222.68,298l.12-14.78c3.08.44,5.39,2.48,7.92,4,26.34,15.56,52.51,31.42,79.06,46.61,5.78,3.3,7.5,6.82,7.43,13.2-.33,28.78-.12,57.57-.06,86.36,0,2,.3,3.94.46,5.92a30.18,30.18,0,0,0,0,9.15c-3.93-.17-6.33-3.64-9.91-4.57l-4.85-2.79a21.47,21.47,0,0,0-7-4l-3.41-2.18c-.09-1.83-.27-3.65-.27-5.48,0-23.47-.22-46.95.09-70.42.06-4.9-1.7-7.33-5.68-9.66-20.22-11.82-40.26-23.95-60.44-35.85-2.23-1.32-3.61-2.72-3.45-5.35l-.06-6.94C222.63,300.11,222.66,299.05,222.68,298Z"/></svg>