<svg id="Capa_1" data-name="Capa 1" xmlns="http://www.w3.org/2000/svg" viewBox="0 0 1024 768"><defs><style>.cls-1{fill:#4589cb;}.cls-2{fill:#625bba;}.cls-3{fill:#4e7dc6;}.cls-4{fill:#7641b0;}.cls-5{fill:#38a0d2;}.cls-6{fill:#14d7e4;}.cls-7{fill:#5571c2;}.cls-8{fill:#6d4bb5;}.cls-9{fill:#3597cb;}.cls-10{fill:#5e64bc;}.cls-11{fill:#24c3de;}.cls-12{fill:#2cb5d8;}.cls-13{fill:#6f52b4;}.cls-14{fill:#6062b5;}.cls-15{fill:#29a0ce;}</style></defs><path class="cls-1" d="M730.16,430.36c-11.4.08-18.71-6.28-19.58-17.66-.52-6.79-.32-13.65-.31-20.48,0-2.6-.21-4.26-3.6-4.41-4.26-.19-6.55-3-6.64-7.31s1.91-7.34,6.14-7.8c3.64-.39,4.34-2,4-5.16a23,23,0,0,1,.18-6c.71-4.44,4.34-7.15,9-7s7.33,2.75,7.92,7.39c0,.33.06.66.08,1,.15,2.82-.56,6.11.67,8.33,1.34,2.4,4.93.62,7.48,1.19,4,.89,6.11,3.4,6.25,7.33s-1.93,6.68-5.79,7.71a17,17,0,0,1-4.94.39c-2.18-.07-3.46.42-3.43,3,.08,6-.08,12,0,18,0,3.24,1.49,5.29,5,5.65,7.5.79,9.69,2.5,9.64,7.24s-4,7.89-10.57,8.45Z"/><path class="cls-2" d="M593,407.05c-.81.14-1.62.33-2.43.4-1,.07-2.25-.2-2.66.85-.47,1.22.52,2.19,1.33,3,5,5.14,11,5.7,17.5,3.87,3-.86,5.83-2.41,8.8-3.46,3.53-1.24,6.71-.44,8.73,2.78s1.37,6.37-1,9.21a10.4,10.4,0,0,1-1.44,1.37c-8.93,7.26-28.63,7.51-39.35.52C572,418.79,567.07,404.89,571,392.13c2.93-9.6,8.95-16.47,19-19.16,1.28,4.62,2.47,9.25,2,14.12-1.38.51-1.77,1.85-2.48,2.93-3.18,4.87-3.18,4.87,2.48,5.28C592.71,399.19,595.24,402.91,593,407.05Z"/><path class="cls-3" d="M650,374c8.93-4.42,17.65-4.18,25.85,1.61,1.91,1.35,2.37,1.24,3.64-.58,2.43-3.47,6.12-3.86,9.86-2.69s5.48,4.26,5.5,8.08q.12,20.72,0,41.44a7.48,7.48,0,0,1-4.89,7.43,8.77,8.77,0,0,1-9.72-1.77c-1.23-1.09-1.93-3.47-4.27-1.65-.35-4.53-.78-9-5-11.93,7.41-6.21,9-14.92,4-21.87-4.09-5.73-11.22-6.5-19-2.05-2.18-.22-2.2-1.87-1.88-3.32C655.21,381.59,653.91,377.38,650,374Z"/><path class="cls-4" d="M473.93,372c-5.39,5.95-8.07,12.8-7.23,20.94,1.39,13.43,9.55,20.35,25.3,21.28,1.43,5.18-.23,10.75,2,15.83-17.31,2.14-33.34-5.73-40.75-20-8-15.34-5.69-35,5.59-47.55a41.76,41.76,0,0,1,4.53-3.82c2.19,1,3.33,2.22,1.13,4.35s-1.39,3.76-.15,6.09C466.72,373.55,470.62,371.48,473.93,372Z"/><path class="cls-5" d="M805,407l.12-1c1.13-.12,1.41-1.21,2.09-1.77,1.92-1.58,1-5.17,3.34-5.72,4.32-1,1.42,3.74,3.48,5.11,3.7,2.44,4.31,6.42,4,10.57a64,64,0,0,1-2.39,7.45c-2.19,4.8-5.46,8.24-11.31,8.42s-10-2.73-12.27-7.78c-5.57-12.45-10.87-25-16.06-37.65-2.43-5.93-.58-10.67,4.31-12.47s9.73.45,11.89,6.05c3.69,9.62,7.14,19.34,10.69,29,.18.63.31,1.41,1.15,1.31S804.92,407.65,805,407Z"/><path class="cls-6" d="M852.88,374.77c18.35-9.29,38-1.25,42.4,17.45a25.73,25.73,0,0,1,.65,6.43c-.17,6.07-2.9,8.76-9,8.8-8.66.07-17.33-.07-26,0-2,0-4-.35-5.9.63,2-4.36.29-8.71,0-13.06,6.45,0,12.9.1,19.35,0,1.5,0,3.66,1.07,4.4-.92.68-1.84-.92-3.37-2-4.8-3.74-4.86-16.37-5.42-21.46,2.84a1.81,1.81,0,0,1-.74-2.89C858.3,383.89,854.85,379.42,852.88,374.77Z"/><path class="cls-7" d="M671,413.91c4.22,2.91,4.65,7.4,5,11.93-7.62,6.11-19.51,6.46-28.49.82C631.15,416.41,629.77,389.08,645,377c1.46,0,2.92.05,3-2l2-1c3.93,3.41,5.23,7.62,4.11,12.7-.32,1.45-.3,3.1,1.88,3.32-4.94,7-5.56,14.52-1.63,19.88C657.91,414.74,663.39,416.08,671,413.91Z"/><path class="cls-8" d="M547.74,389.31c-3.09,3.19-4.07,7-3.92,11.4.22,6.65.19,13.31.09,20-.08,5.71-3.56,9.26-8.84,9.35s-8.79-3.32-8.87-9.25c-.17-13.3-.12-26.6-.08-39.9,0-5.14,2.51-8.3,6.82-9,4.59-.76,7.82,1.27,9.88,6.21C540.9,384.67,542.43,388.15,547.74,389.31Z"/><path class="cls-9" d="M749,400.68c0-6.66-.09-13.33,0-20,.1-5.62,2.94-8.6,8.05-8.78,5.48-.19,9,2.53,9.11,8.25q.51,20.73.22,41.47c-.07,5.36-4.06,8.53-9.25,8.35-5-.17-8.08-3.35-8.2-8.81-.14-6.82,0-13.66,0-20.49Z"/><path class="cls-10" d="M593,407.05c2.22-4.14-.31-7.86-1-11.75,4.63-.1,9.26-.11,13.88-.34,1.88-.09,4.75,1.08,5.41-.85.83-2.42-1.35-4.58-3.27-6.19a11.35,11.35,0,0,0-8.84-2.49,62.63,62.63,0,0,0-7.18,1.66c.46-4.87-.73-9.5-2-14.12,17.93-6.56,36,4,38.25,22.23,1,8.09-2.31,12-10.35,12C609.6,407.22,601.31,407.1,593,407.05Z"/><path class="cls-11" d="M852.88,374.77c2,4.65,5.42,9.12,1.64,14.45a1.81,1.81,0,0,0,.74,2.89c-.08,1-.17,1.92-.26,2.88.31,4.35,2,8.7,0,13.06,2.32,5.92,7.51,7.28,13,8.18.69,3.21-4.27,4.6-2.77,7.78s-.31,4.43-2.24,6c-12.43-1-22-9.68-24.71-22.28C835.37,393.92,841.1,381,852.88,374.77Z"/><path class="cls-12" d="M818.08,414.21c.27-4.15-.34-8.13-4-10.57-2.06-1.37.84-6.12-3.48-5.11-2.34.55-1.42,4.14-3.34,5.72-.68.56-1,1.65-2.09,1.77,3.55-9.44,7-18.94,10.71-28.29,2.25-5.59,7.17-7.64,12-5.58,4.55,1.93,6.41,6.68,4.17,12.15-3.84,9.34-8,18.54-12.07,27.8C819.55,413,819.26,414,818.08,414.21Z"/><path class="cls-2" d="M485,350.37c10.43-1.06,20.31.41,28.87,6.91,3.59,2.73,5.32,6.47,3.21,11-1.86,4-5.25,5.39-9.47,4.78a7,7,0,0,1-3.23-1.22c-5.75-4.52-12.43-5.24-19.38-5A37.11,37.11,0,0,0,485,350.37Z"/><path class="cls-8" d="M494,430c-2.22-5.08-.56-10.65-2-15.83a35.46,35.46,0,0,0,12.84-5.07c4.25-2.73,8.6-2.06,11.21,1.2a8.58,8.58,0,0,1-1.13,12.08A29.29,29.29,0,0,1,494,430Z"/><path class="cls-6" d="M863,430c1.93-1.53,3.69-2.87,2.24-6s3.46-4.57,2.77-7.78a31.48,31.48,0,0,0,12.9-3.3c5.12-2.44,9.46-1.42,11.33,2.29s.37,8.38-4.38,10.84C880.11,430.07,871.9,432.52,863,430Z"/><path class="cls-13" d="M547.74,389.31c-5.31-1.16-6.84-4.64-4.92-11.23,2.1.16,2.48-1.92,3.66-2.92,4.71-4,9.95-5.09,15.74-3.17a8.42,8.42,0,0,1,5.87,10.1c-1,4.5-4.75,7.2-9.69,6.4C554.7,387.9,551.19,387.67,547.74,389.31Z"/><path class="cls-8" d="M485,350.37a37.11,37.11,0,0,1,0,16.48A33.41,33.41,0,0,0,473.93,372c-3.31-.51-7.21,1.56-9.59-2.88-1.24-2.33-1.9-4.1.15-6.09s1.06-3.37-1.13-4.35C469.51,353.15,476.86,350.73,485,350.37Z"/><path class="cls-5" d="M767.74,356a9.91,9.91,0,0,1-9.86,9.78c-5.82.13-10.56-4.13-10.6-9.54a10.07,10.07,0,0,1,9.57-10.16A10.35,10.35,0,0,1,767.74,356Z"/><path class="cls-3" d="M648,375c-.11,2-1.57,2-3,2A5.62,5.62,0,0,1,648,375Z"/><path class="cls-12" d="M805,407c-.09.64-.11,1.43-.92,1.54s-1-.68-1.15-1.31A1.85,1.85,0,0,0,805,407Z"/><path class="cls-14" d="M209.75,346.4c15.26-8,30.86-8.07,46.68-1.87,12.82,5,22.84,14,32.91,23,2,1.79,1.62,2.71-.47,4-4.5,2.78-9.37,5.29-10.41,12-16.74-14.52-32.88-29.08-57.06-21.39a3.86,3.86,0,0,1-2.45-2.33C217,354.6,213.21,350.62,209.75,346.4Z"/><path class="cls-9" d="M397.55,381c-9.86-20-22.64-24.35-49.7-16.55l21.3-23.2a3.5,3.5,0,0,1,2.72-1c25.78-.71,51.48,29.58,47.23,55.69-1.78.21-2.87-.69-4.23-1.85C409.36,389.39,403.86,384.64,397.55,381Z"/><path class="cls-4" d="M202.57,386c-2,19.6,5.68,33.06,21.88,38.46,5.08,1.7,10.35,1.75,17.12,1.43-12,7-23.62,9.68-35.74,10.8-1.63.15-2.8-.86-4-1.82a53.8,53.8,0,0,1-17.18-58c6.4,1.07,3.45,6.11,4.06,10.07,2.18-1.82,4.87,1.19,5.72.11C197.09,383.73,199.84,385.84,202.57,386Z"/><path class="cls-15" d="M340.55,275.85c8.39-6.35,17.54-6,26.46,1.12.28,2,1,3.39,3.36,2.45l.21.14c-.66,2.4-1.28,4.8-2,7.18-1.72,6,.57,10.51,6.54,12.21,2.32.66,3.38,2.43,4.88,3.95,2.54,2.58,3.47,7,8.13,7.24-5.38,7.51-11.92,14-18.2,20.72-8.15-6.53-14.35-14.81-20.71-23-2.24-2.87-5-5.25-8.76-6a133.57,133.57,0,0,1,11.2-18.16c-1.11-1.2-2.56-.33-3.69-.83C346.26,279.73,345.19,275.89,340.55,275.85Zm24.33,33.63c3.4-.29,5.9-1.8,6-5.42s-1.91-6-5.71-6.16c-3.49-.13-5.86,1.71-6,5.26C359,306.89,361.27,308.91,364.88,309.48Z"/><path class="cls-10" d="M363,445.9c-7.69.06-14.78-2.3-21.52-5.66-13-6.45-23.67-15.88-34.6-26.15,6.73-2.55,12.57-5.63,14.65-13.42,7.36,7.23,15.06,13,22.6,19-.1,2,.49,4.13,2.11,4.75,6.49,2.47,8.95,8.33,12.39,13.5C360.34,440.46,363.2,442.31,363,445.9Z"/><path class="cls-4" d="M247.46,445.22C232,451,216,451.81,199.74,450.53a132.59,132.59,0,0,1-26-5c-11.45-3.27-22.88-6.06-34.77-1.59,3.39-4.39,8.22-5.35,13.14-5.85A53.57,53.57,0,0,1,169,439.46c24.5,5.38,48.57,5.5,71.79-5.53,1.92.66,4.74.05,2.69,4.12C242.14,440.77,243.89,444.05,247.46,445.22Z"/><path class="cls-9" d="M340.49,301.85c3.76.8,6.52,3.18,8.76,6,6.36,8.15,12.56,16.43,20.71,23a120.45,120.45,0,0,1-12.64,14.25c-2.95.33-3.8-2.11-5.22-3.88-4.94-6.2-10-12.31-14.88-18.56-2.36-3-4.67-5-8.2-1.68A200.1,200.1,0,0,1,340.49,301.85Z"/><path class="cls-8" d="M202.57,386c-2.73-.17-5.48-2.28-8.11,1.05-.85,1.08-3.54-1.93-5.72-.11-.61-4,2.34-9-4.06-10.07,4.2-13.58,12.28-24,25.07-30.48,3.46,4.22,7.25,8.2,9.2,13.45a3.86,3.86,0,0,0,2.45,2.33C211.4,367.18,205.17,375.16,202.57,386Z"/><path class="cls-1" d="M329,321c3.53-3.31,5.84-1.35,8.2,1.68,4.88,6.25,9.94,12.36,14.88,18.56,1.42,1.77,2.27,4.21,5.22,3.88A161.43,161.43,0,0,1,342.9,361c-5-5.95-11.33-10.77-15.63-17.41-1.86-2.86-3.79-5.78-7.49-6.62A134.39,134.39,0,0,1,329,321Z"/><path class="cls-13" d="M247.46,445.22c-3.57-1.17-5.32-4.45-4-7.17,2.05-4.07-.77-3.46-2.69-4.12a155.55,155.55,0,0,0,28.33-20.85c1-.95,1.92-1.63,3.4-.43,3.6,2.91,7.34,5.66,11,8.44,1.29,1,1.84,1.79.3,3.07-10.09,8.41-20.46,16.33-33.4,19.95-1-.05-1.94-.05-2.51.95l-.22.21Z"/><path class="cls-3" d="M363.58,405.27C356,405.26,350,399,350,391a14,14,0,0,1,14-14c7.67-.07,13.75,6.08,13.87,14A14.13,14.13,0,0,1,363.58,405.27Z"/><path class="cls-1" d="M397.55,381c6.31,3.67,11.81,8.42,17.32,13.14,1.36,1.16,2.45,2.06,4.23,1.85.33,11-3.3,20.55-9.93,29.13-4.85-4.4-9.16-9.46-15.35-12.15C399.94,402.85,400.62,392.13,397.55,381Z"/><path class="cls-3" d="M319.78,336.92c3.7.84,5.63,3.76,7.49,6.62,4.3,6.64,10.58,11.46,15.63,17.41A69.15,69.15,0,0,1,333,372c-5.28.43-7.09-4.06-10-7-4.08-4-6.15-10.52-13.18-11A150.12,150.12,0,0,1,319.78,336.92Z"/><path class="cls-7" d="M363,445.9c.2-3.59-2.66-5.44-4.37-8-3.44-5.17-5.9-11-12.39-13.5-1.62-.62-2.21-2.79-2.11-4.75,10.27,5.91,21.09,8.57,32.87,5.63,2.41,6.23,7,11.13,10.24,16.87C379.57,446,371.41,446.78,363,445.9Z"/><path class="cls-14" d="M302.08,399.18c2.26-3.08,3.16-6.26-.21-9.07-3.18-2.65-6.06-1.13-8.67,1.25-2.79-3.55-3.3-7.88-4.13-12.09,9.13-6.31,9.13-6.31,18,0l2.44,1.73c9.34,6.64,9,6.57,6.57,17.54-1.54,6.78-7.12,7.57-12,9.66C302.12,405.5,303.87,401.94,302.08,399.18Z"/><path class="cls-3" d="M387.24,442.14C384,436.4,379.41,431.5,377,425.27a39.81,39.81,0,0,0,16.82-12.33c6.19,2.69,10.5,7.75,15.35,12.15A41.75,41.75,0,0,1,387.24,442.14Z"/><path class="cls-13" d="M233.67,402.86c-4,0-8,0-12,0-2.88,0-4.18-.65-2.4-3.75,4-6.94,7.8-13.95,11.62-21,1.6-2.95,2.93-3.28,4.74-.1,3.86,6.81,7.8,13.57,11.89,20.24,2.34,3.82.79,4.59-2.86,4.47s-7.33,0-11,0Z"/><path class="cls-3" d="M293.09,321.21c-.77,6.76-1.56,13.53-2.33,20.29-.38,3.29-1.56,4.63-4.74,2.27-6.26-4.66-12.6-9.21-18.91-13.81-3.32-2.43-2.08-3.79,1.05-5,6.52-2.45,13-5,19.49-7.59C293.47,315.11,293.47,315.1,293.09,321.21Z"/><path class="cls-7" d="M309.79,354c7,.5,9.1,7,13.18,11,3,2.93,4.77,7.42,10,7-2.41,4.05-6.3,6.79-9.18,10.41-1.3,1.63-2.36,1.17-3.75.14-5.62-4.13-11.27-8.23-17-12.24-1.68-1.18-2.05-2.19-.84-4C304.9,362.26,307.29,358.09,309.79,354Z"/><path class="cls-13" d="M303.79,456.87c-3.83,0-7.66,0-11.49,0-3.14,0-4.52-.69-2.51-4.05,4-6.72,7.82-13.56,11.63-20.39,1.37-2.44,2.56-2.87,4.12-.19q6,10.35,12.17,20.66c1.74,2.94.56,3.8-2.42,3.73-3.83-.09-7.66,0-11.5,0Z"/><path class="cls-12" d="M388.16,310.14c-4.66-.2-5.59-4.66-8.13-7.24-1.5-1.52-2.56-3.29-4.88-3.95-6-1.7-8.26-6.2-6.54-12.21.69-2.38,1.31-4.78,2-7.18,6.38,4.4,12.88,8.65,19.11,13.26,4.73,3.5,4.33,9.64-.66,16.18-.33.38-.65.76-1,1.13Z"/><path class="cls-3" d="M333.18,298.05c-2.79,6.54-5.39,13.18-8.42,19.61-2.84,6-7.65,9.45-14.58,9.34-1.74,0-3.4-.34-4-2.26a3.21,3.21,0,0,1,1.51-3.9c10.35-3.87,11.72-14.1,16.07-22.22.46-.88.94-1.74,1.41-2.61C328.24,295.18,330.5,297.42,333.18,298.05Z"/><path class="cls-11" d="M378.44,265.89c5.4-.05,16.77,8.4,18.12,13.15a8.91,8.91,0,0,1-.22,5.38c-1.57,4.65-2.44,5-6.45,2.11-5.55-3.94-11.11-7.87-16.62-11.86-4.31-3.12-4.22-4.41.43-7.22A8.74,8.74,0,0,1,378.44,265.89Z"/><path class="cls-13" d="M289.07,379.27c.83,4.21,1.34,8.54,4.13,12.09.59,9.32-5.84,15-10.33,21.79a2.71,2.71,0,0,1-1.45-3.13c.71-7.59,1.46-15.18,2.06-22.77C283.79,383.42,285.32,380.61,289.07,379.27Z"/><path class="cls-9" d="M333.18,298.05c-2.68-.63-4.94-2.87-8-2,3.73-7.78,7.66-15.41,15.36-20.16,4.64,0,5.71,3.88,7.45,7C340.11,285,337.44,292.32,333.18,298.05Z"/><path class="cls-4" d="M123.75,434.56a8.22,8.22,0,0,1,8,8,8.41,8.41,0,0,1-8.08,8,8,8,0,0,1,.12-16Z"/><path class="cls-12" d="M408.9,333.82a7,7,0,1,1,7.16-6.75A6.86,6.86,0,0,1,408.9,333.82Z"/><path class="cls-13" d="M187.79,342.65a6.8,6.8,0,1,1,.66-13.58c4.14.33,6.24,2.87,6.44,6.85C195.07,339.68,191.69,342.73,187.79,342.65Z"/><path class="cls-13" d="M302.08,399.18c1.79,2.76,0,6.32,2,9l-15.73,7.48c-.76.36-1.63.87-2.31.16-.92-1,0-1.83.52-2.6,2.63-3.65,5.4-7.2,7.9-10.93C296.39,399.5,299.86,401,302.08,399.18Z"/><path class="cls-12" d="M370.37,279.42c-2.4.94-3.08-.48-3.36-2.45A6.1,6.1,0,0,1,370.37,279.42Z"/><path class="cls-4" d="M248,445.06c.57-1,1.53-1,2.51-.95A3,3,0,0,1,248,445.06Z"/><path class="cls-15" d="M388.05,310.13c.33-.37.65-.75,1-1.13C388.7,309.38,388.38,309.76,388.05,310.13Z"/></svg>