<svg id="Capa_1" data-name="Capa 1" xmlns="http://www.w3.org/2000/svg" viewBox="0 0 1024 768"><defs><style>.cls-1{fill:#093663;}.cls-2{fill:#0c3a67;}.cls-3{fill:#0b3966;}.cls-4{fill:#fd8504;}</style></defs><path class="cls-1" d="M388.63,381.53c0-11.16.1-22.31-.06-33.46-.05-3.08.49-4.3,4-4.25,15.81.22,31.63.19,47.44,0,3.2,0,4.24.73,4.21,4.06-.06,8.85.11,8.86-8.87,8.9-9.15,0-18.31.17-27.46,0-3-.06-4.12.66-3.94,3.84a108.54,108.54,0,0,1,0,14c-.27,3.73,1.27,4.33,4.57,4.25,9.15-.2,18.31.11,27.46-.11,3.28-.07,4.18.88,4.17,4.13,0,8.27.13,8.27-8,8.29s-16,.17-24,0c-3.13-.07-4.35.65-4.21,4.1.28,7.14,0,14.31.12,21.47.06,2.66-.84,3.28-3.41,3.36-11.92.33-11.95.42-12-11.63C388.58,399.51,388.63,390.52,388.63,381.53Z"/><path class="cls-2" d="M764.17,396.07c-5.83,0-11.66,0-17.49,0-4.38,0-4.83.92-2.57,4.86,4.57,8,16.62,10.36,25.73,5.21,1.75-1,3.19-3.95,5.28-2.68,2.63,1.59,4.69,4.2,6.8,6.56,1.1,1.23-.34,2-1.09,2.85-8.2,8.77-25.78,10.7-38.28,4.21-11.93-6.19-17.63-19.46-14.43-33.61,2.76-12.22,13.78-21.08,27.18-21.84,18.38-1,32.11,12.57,31.3,30.91-.11,2.47-.71,3.55-3.43,3.48-6.33-.19-12.66-.06-19-.06Zm-7.67-9v0c4,0,8-.18,12,0s4-1.43,2.79-4.45c-2.45-6.12-7.49-9.48-14.47-9.33a15.24,15.24,0,0,0-14,10.18c-1.16,3.13-.17,3.74,2.75,3.61C749.17,386.93,752.84,387.06,756.5,387.06Z"/><path class="cls-3" d="M824.24,421c-18,.06-31.21-12.24-31.3-29.23-.11-17.59,12.69-30.22,30.74-30.36,17.75-.15,31.25,12.87,31.2,30.06C854.83,408.18,841.57,421,824.24,421Zm-16.33-30c0,10.5,6.09,17.35,15.67,17.5,9.2.15,16-7.14,16.13-17.26.11-9.94-6.74-17.31-16.06-17.27C814.59,374,808,381.2,807.91,391Z"/><path class="cls-2" d="M486.14,413.44c-7.81,7.45-16.2,8.75-25.28,6.59-8.77-2.09-13.82-8.07-13.81-16,0-8.63,4.71-14.15,13.94-16.3,6.58-1.53,13.28-.92,19.92-.78,3.88.07,4.63-1.44,3.87-4.73-1.19-5.14-4.75-7.45-9.64-8a27.55,27.55,0,0,0-17.78,3.64c-2.21,1.35-2.83.93-3.85-1.31-4-8.86-3.95-9.29,5.48-12.39A47.55,47.55,0,0,1,480.2,362c12.09,1.6,19.1,8.77,19.54,20.83.42,11.32.11,22.67.22,34,0,2.26-.51,3.46-3,3.2a22.55,22.55,0,0,0-4.5,0C488.3,420.41,484.66,420.29,486.14,413.44ZM476,395.84v-.14a85.09,85.09,0,0,0-8.92.56,6.18,6.18,0,0,0-5.38,5.17,6.93,6.93,0,0,0,2.45,7.14c5.15,4.27,16.6,1.94,19.9-4,3.05-5.47,1.16-8.75-5.06-8.75Z"/><path class="cls-2" d="M659.17,413.17c-7,6.63-14.68,8.82-23.41,7.26-10.09-1.8-16.53-8.08-17.66-18.26a200.36,200.36,0,0,1-.2-37.38c.45-5.73,7.19-1.16,10.88-2.4,2.34-.79,3.52.3,3.49,3.08-.12,9.32,0,18.64.08,28,.1,9.82,3.87,14.39,11.86,14.52,8.42.13,14.5-5.87,14.7-14.87s.21-18,.09-26.95c0-2.75.69-3.69,3.58-3.76,11.06-.29,11-.41,11.06,10.68,0,14.31,0,28.63.16,42.93.05,3.3-.9,4.61-4.17,4.1a16,16,0,0,0-2.5,0C660.29,420.06,660.29,420.06,659.17,413.17Z"/><path class="cls-2" d="M509.58,391c.65-12.85,6.28-22.15,17.91-26.89,12.13-4.94,23.8-3.91,34.13,4.92a15.47,15.47,0,0,1,2.3,2.61c1.93,2.58,2.78,4.88-1.48,6a11,11,0,0,0-3.53,1.83c-2.64,1.93-4.39,2-7-.81-6-6.44-16.78-5.92-22.85.49s-5.74,18.51.52,24.62a15.75,15.75,0,0,0,22.73-.57c1.91-2.15,3.27-2.26,5.29-.83,2.52,1.79,7.55,1.84,7.63,4.58.11,3.68-3.69,6.54-6.9,8.63-10.71,7-22.05,7.17-33.23,1.57C514.4,411.82,510,402.31,509.58,391Z"/><path class="cls-2" d="M577.2,390.71c0-2.67,0-5.33,0-8,0-2.49.56-5.38-.51-7.33s-4.25-.7-6.47-.94c-1.68-.18-2.4-.73-2.28-2.44a22.46,22.46,0,0,0,0-4.49c-.43-3.22.7-4.75,4.06-4.18,4,.67,5.47-.57,5.3-5-.39-9.72-.11-9.52,9.76-9.81,4-.11,5,1.07,4.92,4.94-.17,9.91,0,10.21,10.23,9.84,4.6-.17,4.72,2,4.63,5.31-.09,3.14.66,6-4.49,5.87-10.45-.22-10.46.11-10.45,10.61,0,5.16-.06,10.33.06,15.49.17,7.05,4.38,10.16,10.92,7.47,3.58-1.47,4.36-.3,5.41,2.73,2.52,7.24,2.41,7.65-5.34,9.45-15.63,3.62-25.58-4.13-25.72-20.07C577.18,397,577.2,393.87,577.2,390.71Z"/><path class="cls-3" d="M703.48,370.11c4.26-4.72,9.17-7.76,15.46-8.26,2.85-.22,4.61.13,4,3.53a6.7,6.7,0,0,0,0,1c0,2.49.7,5.35-.28,7.39-1.21,2.52-4.47.86-6.8,1.32-7.61,1.5-12.44,6.9-12.63,15.07-.2,8.65-.12,17.31,0,26,.05,2.79-.34,4.05-3.7,4.06-10.7,0-10.73.2-10.76-10.38,0-14.32.14-28.64-.13-42.95-.07-3.87,1.1-4.7,4.74-4.61C701.74,362.45,701.75,362.26,703.48,370.11Z"/><path class="cls-1" d="M324.1,362.93c-9.5,9-19.19,17.82-28.48,27q-39.14,38.88-77.94,78.08a9.11,9.11,0,0,1-7.39,3c-7.82-.19-15.65-.06-23.45-.06-.73-1.64.71-2.12,1.42-2.84q52.14-52.43,104.33-104.81c1.31-1.31,2.52-2.44,4.66-2.41,8.46.12,16.93.05,25.39.05Z"/><path class="cls-1" d="M345.88,289.19c-3.54,5.73-8.76,9.95-13.42,14.64q-51.58,51.93-103.41,103.63c-.79.79-1.39,1.92-3.22,2,0-9,0-17.92,0-26.85,0-1.76,1-2.71,2.1-3.76q43.66-43.63,87.27-87.32a7.31,7.31,0,0,1,5.8-2.1c8.32,0,16.63-.11,25-.18A.73.73,0,0,1,345.88,289.19Z"/><path class="cls-3" d="M292.47,413v26.62c0,1.49-1.08,2.34-2,3.29q-12.78,13-25.53,25.93c-1.17,1.18-2.23,2.27-4.19,2.25-8.76-.1-17.53,0-25.87,0Z"/><path class="cls-4" d="M345.88,289.19a.73.73,0,0,0,.05.09c7.43.05,14.88.22,22.31.09,2.95-.05,4.14.72,4,3.88-.23,5.8-.16,11.63,0,17.43.06,2.47-.5,3.61-3.24,3.55-6.31-.16-12.62-.17-18.93,0-2.81.08-3.28-1.15-3.21-3.57.16-5.47.16-11,.07-16.43C346.93,292.53,347.75,290.54,345.88,289.19Z"/></svg>