<svg id="Capa_1" data-name="Capa 1" xmlns="http://www.w3.org/2000/svg" viewBox="0 0 493.79 463.87"><path d="M101.33,395.38c13.25,0,26.06.89,38.62-.51,4-.44,9.26-6.27,10.77-10.71,15.9-46.9,31.13-94,46.61-141.07,1.63-5,3.62-9.81,7-18.92,6.56,19.34,11.95,34.67,17,50.13C233.07,310.67,245,347,256.1,383.59c2.77,9.13,6.75,12.82,16.36,12.12,11.08-.81,22.27-.19,35.53-.19L273.9,287.94H502.8V487.16H10.21V24.29c4.88-.32,9.6-.91,14.32-.91q212.1-.11,424.18-.06c39.56,0,55.23,15.78,55.27,55.39q.09,73.64-.05,147.28v15.49c-5.41.39-9.64,1-13.87,1-73.15,0-146.3-.3-219.45.06-10,.05-14.73-2.57-17.47-12.56-5.93-21.66-13.3-42.92-20.8-66.64H408.63V119.46c-3.53-.42-7.22-1.22-10.92-1.23-64.8,0-129.61.18-194.41-.21-8.93-.06-13,2.64-15.73,11.09q-42.8,130.7-86.2,261.19C101.08,391.16,101.33,392.21,101.33,395.38Z" transform="translate(-10.21 -23.3)"/></svg>