<svg id="Capa_1" data-name="Capa 1" xmlns="http://www.w3.org/2000/svg" viewBox="0 0 1024 768"><defs><style>.cls-1{fill:#709e6e;}.cls-2{fill:#74a06e;}.cls-3{fill:#75a374;}.cls-4{fill:#969597;}</style></defs><path class="cls-1" d="M493.54,409.22c0-16.32.22-32.64-.12-49-.11-5.08,2.77-4.06,5.68-4.25,3.29-.23,5,.18,5,4.38-.18,29.14,0,58.29-.17,87.43,0,4.54,1.31,5.47,5.58,5.4,16.49-.26,33,0,49.46-.26,4.3-.07,4.75,1.65,4.93,5.21.22,4.28-2.22,3.9-5,3.91-20.15.06-40.3.06-60.44.39-4.27.07-5.22-1.25-5.17-5.3.23-16,.1-32,.1-48Z"/><path class="cls-1" d="M645.49,448.9q12.54-31,25.09-61.91c.83-2,1.11-4.35,4.42-4.52,8.1-.42,8.16-.53,5.07,6.88-9.47,22.73-19,45.43-28.35,68.22-1.54,3.76-3.57,5.08-7.7,5.16s-5.3-2.15-6.55-5.23c-9.57-23.6-19.12-47.21-28.93-70.71-1.63-3.91-.53-4.05,3-4.34,4.83-.39,6.92,1.42,8.62,5.87,7.79,20.32,16,40.48,24,60.71Z"/><path class="cls-2" d="M749.81,419.41c0,7.32-.11,14.64,0,22,.21,11.55,8.07,16.58,18.55,11.41,3.71-1.83,4.43-.65,6,2.25,2.11,3.76-.25,4.71-2.74,5.81a28.9,28.9,0,0,1-13.11,2.6c-10.91-.47-18-6.83-18.4-17.75-.52-15.62-.17-31.27-.21-46.91,0-8.66.72-7.45-7.4-7.41-4.9,0-7-2.86-5.29-7.34.86-2.25,2.82-1.31,4.3-1.35,8.54-.22,8.53-.18,8.2-8.84a55.87,55.87,0,0,0-.15-6.48c-.74-4.86,1.11-6.31,6-6.09,3.65.17,4.5,1.39,4.35,4.68-.21,4.49,0,9-.06,13.48,0,2.35.85,3.26,3.22,3.21,5.16-.1,10.33.18,15.48-.09,3.74-.2,3.39,2,3.4,4.44s.34,4.75-3.38,4.45c-3.15-.24-6.32-.05-9.49-.07-9.37-.05-9.37-.06-9.32,9.55,0,2.5,0,5,0,7.49,0,3.66,0,7.32,0,11Z"/><path class="cls-3" d="M580.27,422.59c0-11.81.16-23.62-.1-35.42-.08-3.77.91-5.06,4.69-4.72,3.11.29,6-.64,5.95,4.56q-.36,35.67.11,71.36c.06,5.15-3,3.88-5.8,4.1-2.92.23-5,.18-4.87-4,.28-12,.1-23.95.1-35.93Z"/><path class="cls-1" d="M709,422.48c0,12-.23,24,.11,36,.14,4.74-2.6,3.93-5.37,4s-5,.29-4.91-4q.33-35.94,0-71.91c0-4.69,2.55-3.92,5.35-4s5-.22,4.89,4c-.3,12-.11,24-.11,36Z"/><path class="cls-3" d="M704.13,365.41a7.81,7.81,0,0,1-7.93-7.28,8.14,8.14,0,0,1,7.82-8A8,8,0,0,1,711.9,358,7.53,7.53,0,0,1,704.13,365.41Z"/><path class="cls-2" d="M593.25,357.72a7.66,7.66,0,0,1-15.31.24,7.84,7.84,0,0,1,7.3-7.92A7.67,7.67,0,0,1,593.25,357.72Z"/><path class="cls-2" d="M258.8,413.9c17.53-12.7,34.94-25.56,52.66-38,4.83-3.38,7.39-6.86,6.66-13-.58-4.86-.11-9.85-.11-15.93l-21.25,15.41c-13.2,9.59-26.38,19.22-39.61,28.76-2.14,1.54-3.4,3-3.39,6,0,5.42-5.55,9.4-11.21,8.69a9.81,9.81,0,0,1-8.41-11.56c.91-5.38,6.18-9.36,11.29-7.89,2.67.77,4.29.12,6.3-1.35,10.22-7.46,20.46-14.9,30.88-22.1,2.69-1.86,3.48-3.87,3.46-7-.1-19.33.09-38.67,0-58,0-3.74.65-5.27,4.85-5.14,10,.3,20,.18,30-.1,4.16-.12,5.79.81,5.6,5.43-.37,9.15.07,18.33,0,27.49,0,3.43.85,4.37,3.85,2.08,4.23-3.23,8.75-6.12,12.79-9.59,2.93-2.52,5-2.33,8-.08q39.19,29,78.59,57.63c7.52,5.51,15.1,11,22.52,16.61,1.12.85,4.42,1.91,2.26,3.69-1.85,1.52-3.27,6-7.53,2.82-12.78-9.62-25.72-19-38.6-28.48-19.33-14.2-38.7-28.35-58-42.64-2.43-1.8-4.06-2.14-6.4.05a32.77,32.77,0,0,1-8,5.93c-8.48,4-11.1,10.57-9.63,19.37.59,3.51-1.68,8.35,1.13,10.22,1.84,1.23,5.16-3.26,8.1-4.72.44-.22.92-.38,1.38-.56,1.06,2.2,3.06,4,2.87,6.74-1.93,1.58-3.63,3.63-5.81,4.64-6.54,3.05-8,8-7.75,14.86.5,16.31.23,32.66,0,49-.06,3.93,1.11,5,5.05,5,30.49-.16,61-.13,91.49-.11,7.72,0,6.72-1.1,6.78,7,.07,9.5-.08,19,.16,28.5.09,3.35-1,4.19-4.24,4.18q-67.74-.17-135.49,0c-3.44,0-4.11-1.15-4.08-4.31.17-17.16.33-34.33,0-51.49-.11-5.86,5-6.36,7.31-9.64,1.95,1.13,1.17,2.61,1.17,3.78.07,16.16.16,32.33,0,48.49,0,3.7,1,4.79,4.77,4.78q58.76-.24,117.49-.08c3.38,0,4.83-.79,4.61-4.42a96.4,96.4,0,0,1,.08-13.49c.35-4.18-1.43-4.89-5.16-4.88-30.17.14-60.33.09-90.49.09-7.86,0-7.86,0-7.85-8q0-25.5,0-51v-6.47L264,420A12,12,0,0,0,258.8,413.9Zm35.41-59.52c8.09-5.94,15.28-11.22,22.49-16.48,1.47-1.08,1.22-2.61,1.22-4.09,0-9.66-.07-19.32.16-29,.08-3.26-1.15-3.92-4.06-3.81-5.33.2-10.67.25-16,0-3.23-.16-3.91,1.11-3.89,4C294.26,321,294.21,337,294.21,354.38Z"/><path class="cls-2" d="M357.09,356.75c25.8,18.2,51.52,36.52,76.74,55.53A11.24,11.24,0,0,1,429,418c-19.41-12.78-37.68-27.12-56.65-40.5-5.83-4.12-11.58-8.33-17.37-12.5C354.71,362,357.8,359.86,357.09,356.75Z"/><path class="cls-4" d="M357.09,356.75c.71,3.11-2.38,5.25-2.11,8.25-5.05,1.11-10.08,1.4-15.08-.27.19-2.73-1.81-4.54-2.87-6.74.18-1,.36-1.94.55-2.91,1.2-6.19,5.24-9.51,10.88-8.95C353.81,346.67,356.85,350.41,357.09,356.75Z"/><path class="cls-4" d="M429,418a11.24,11.24,0,0,0,4.83-5.72c.8-.18,1.61-.34,2.41-.54,6.25-1.61,11.76,1.55,12.84,7.39s-2.45,11.06-7.8,11.81c-6.53.91-11.36-2.93-11.95-9.51C429.23,420.29,429.11,419.14,429,418Z"/><path class="cls-4" d="M258.8,413.9A12,12,0,0,1,264,420c.17,8.68-4.39,13.75-11.23,12.49-5.6-1-9.42-6.37-8.33-11.64,1.19-5.73,5.9-8.71,11.92-7.53C257.2,413.52,258,413.72,258.8,413.9Z"/><path class="cls-4" d="M364.41,396.35c3.87-.93,4.18,1.26,4.36,4.39.22,3.8-1.52,4.19-4.67,4.3-3.46.11-4.08-1.25-4.07-4.33C360.05,397.47,360.59,395.45,364.41,396.35Z"/><path class="cls-4" d="M376.37,404.73c-4.28,1-4.26-1.42-4.47-4.4-.28-3.93,1.75-4,4.75-4.23,3.74-.25,3.87,1.66,3.88,4.46C380.55,403.74,380.12,406,376.37,404.73Z"/><path class="cls-4" d="M364.22,408.36c3-.45,4.82.12,4.55,3.76-.21,2.75.21,5.22-4,5-3-.17-5-.31-4.75-4.18C360.23,409.92,360.33,407.55,364.22,408.36Z"/><path class="cls-4" d="M380.37,412.54c.63,3.48-.59,4.55-4,4.57-3.55,0-4.52-1.1-4.49-4.55,0-3.19.77-4.41,4.16-4.36S381.27,409.06,380.37,412.54Z"/></svg>