<svg id="Capa_1" data-name="Capa 1" xmlns="http://www.w3.org/2000/svg" viewBox="0 0 1024 768"><defs><style>.cls-1{fill:#4e9dc1;}.cls-2{fill:#509ec0;}.cls-3{fill:#529ec2;}.cls-4{fill:#509dc2;}</style></defs><path class="cls-1" d="M498,384.17q-6.58,16.11-13.18,32.22c-.94,2.31-1.89,4.62-2.91,6.9-1.69,3.79-4.89,5.41-8.8,5.47-3.72.06-7-1.34-8.63-4.89-2.33-5-4.48-10-6.56-15.11-3.44-8.42-6.76-16.89-11-25.25q-2,14.42-4,28.84c-.7,4.95-1.33,9.9-2.16,14.83-.95,5.69-5.61,9.14-11,8.37s-8.43-4.82-7.5-11q5.31-34.8,11-69.56c.81-5,4.14-7.86,9.09-8.67a9.83,9.83,0,0,1,10.78,6.29c6,14.44,11.87,29,17.79,43.44.5,1.23,1,2.45,1.53,3.64,2.1-.05,1.84-1.85,2.26-2.88,5.78-14,11.43-28.06,17.18-42.08,2.62-6.39,6.17-8.87,11.47-8.3s8.78,3.85,9.83,10.27q5.48,33.27,10.6,66.6c1.14,7.53-1.42,11.28-7.47,12.35-5.82,1-10.23-2.44-11.21-9.21-1.77-12.2-3.33-24.42-5-36.63-.25-1.8-.58-3.58-.88-5.36Z"/><path class="cls-2" d="M649.74,428.9c-8.83,8-18.77,9.63-29.38,5.4-11.81-4.71-17.57-14.31-19.19-26.51a39.59,39.59,0,0,1,2.09-19.16c7.16-19.44,31.22-26.39,46.68-12.86,0-8.08,0-15.63,0-23.18,0-7.14,3-10.63,9-10.61s9.57,3.55,9.6,10.27q.18,36.69,0,73.4c0,5.62-2.54,8.67-7.4,9.84C656.63,436.58,653.37,434.76,649.74,428.9Zm.5-26.29c0-10.41-6.48-17.35-15.91-17.19-8.46.14-15,7.64-15.09,17.25S626,419.73,635,419.78C644.15,419.83,650.29,412.94,650.24,402.61Z"/><path class="cls-2" d="M569.72,408.94c-5.34,0-10.67-.05-16,0-1.24,0-2.89-.69-3.64.77s.47,2.88,1.25,4.08c4.25,6.56,14.54,8.9,23,5.22,2.28-1,4.41-2.34,6.67-3.4,3.81-1.8,7.34-1.09,9.83,2.21s1.94,6.88-1,9.95c-5.93,6.27-13.83,7.68-21.83,8.52-16,1.68-30.38-7.31-35.44-21.89-5.14-14.83.77-32.71,13.44-40.62,20.47-12.77,46.48-1.35,49.52,21.73,1.19,9.09-2.69,13.51-11.83,13.48h-14Zm-6.71-13v0c3.81,0,7.62-.13,11.42,0,3.45.16,4-1.16,2.79-4.14-2.21-5.29-7.8-8.35-14.71-7.85-5.59.41-11.4,4.93-12.76,9.68-.57,2,.16,2.32,1.84,2.31C555.4,395.92,559.2,395.94,563,395.94Z"/><path class="cls-3" d="M684.6,391.58c0-12.15,0-24.3,0-36.45,0-5.84,1.28-7.08,7-7.09,8.49,0,17-.12,25.47,0,17,.26,28.84,12.29,28.88,29.16,0,16.51-11.83,28.44-28.7,28.72-6.32.1-12.65.09-19-.1-3.06-.09-4.07,1.05-4,4.06.2,6.32.07,12.65.17,19,.06,3.47-1,6-4.89,6.12-4,.13-5-2.57-5-5.94q0-18.73,0-37.45Zm23,5.48h8.22c12.57,0,20.27-7.31,20.44-19.45.17-12.52-7.29-20.23-20-20.53-5.66-.14-11.34.16-17-.21-4-.26-5.6.73-5.37,5.07.39,7.14.09,14.31.22,21.47.08,4.29-1.87,9.83.74,12.54C697.81,398.91,703.47,396.5,707.65,397.06Z"/><path class="cls-3" d="M785.39,407.84c-6.67,0-13.34.11-20,0-3.12-.08-3.52.92-2.79,3.82,3.68,14.65,22.42,20.7,34.61,11,1.56-1.24,2.92-2.73,4.37-4.1,1.66-1.58,3.52-2,5.42-.59,2.06,1.49,2.37,3.48,1.25,5.74-1.62,3.25-4.3,5.46-7.24,7.41-11.46,7.58-28.24,6.66-38.27-2.1-10.92-9.53-13.94-27-7.08-40.85a30.15,30.15,0,0,1,32.45-16.27c14.08,2.64,24.61,16.11,23.86,30.4-.19,3.66-1.86,5.51-5.59,5.5-7,0-14,0-21,0ZM782,399.77v0c5.65,0,11.3-.12,16.94,0,3.21.09,3.55-1.28,2.92-4-2.3-9.87-10-15.94-20.22-15.66a20.53,20.53,0,0,0-19.33,16.46c-.53,2.65.42,3.21,2.75,3.18C770.72,399.72,776.37,399.77,782,399.77Z"/><path class="cls-3" d="M831.1,401.34c0-5.33-.12-10.66,0-16,.09-2.83-.9-3.94-3.73-3.7a27.87,27.87,0,0,1-5.48-.08,4,4,0,0,1-3.85-3.92c-.16-2.57,1.46-3.91,3.81-4.49.32-.07.66-.06,1-.1,8.21-.94,8.21-.94,8.22-9.11,0-2.33,0-4.67,0-7,.06-2.82,1.67-4.45,4.36-4.42s4.45,1.5,4.53,4.34c.11,4,.23,8,0,12-.16,3.13.69,4.58,4.12,4.32,3.65-.27,7.32-.05,11,0,2.7,0,4.6,1.2,4.73,4,.14,3.13-1.87,4.45-4.76,4.52-3.83.1-7.66.17-11.49.06-2.44-.07-3.63.57-3.58,3.32.2,10.32,0,20.65.37,31,.3,8.19,4.83,11.51,13,10.25a16.43,16.43,0,0,0,2-.35c2.82-.79,5.06-.19,5.93,2.83s-.92,4.72-3.46,5.76c-12.44,5.14-25.54-2.75-26.56-16.21-.43-5.63-.07-11.32-.07-17Z"/><path class="cls-4" d="M181,470.55a38.69,38.69,0,0,1-2.83-14.61,1.67,1.67,0,0,0-.06-2.9V451c1.15-.95,1.16-1.92.05-2.91.34-15.17,6.29-28.22,16.2-39.27,11.1-12.38,21.79-25,32.26-38,22.65-28,62.82-29.87,87.51-3.76a615.31,615.31,0,0,1,41.07,48.77c11.58,15.11,14.28,33,9.63,51.72a18,18,0,0,1-2.64,6.41c-5-.64-6.78,3-8,6.58-1.06,3.08-3.63,4.7-5.8,6.14s-6.11,2.72-6.35-2.63c7.58-6.3,12.65-14.13,13.95-24,2.16-16.4-2.21-31-12.85-43.66-4.28-5.08-9.09-9.71-13.74-14.47-8.16-8.37-13.62-18.87-21.85-27.21-21.29-21.55-53.7-20.79-72.87,2.69-10.63,13-21.33,25.89-32.65,38.31-16.8,18.42-21,50.1,0,68.14-1.25,4.79-4,6.88-9,5.13-6.07-4.79-9.64-11.21-12-18.41Z"/><path class="cls-4" d="M270,303.6c-.29,12.18-3.51,23.52-12.19,32.73-11.25,11.95-27,13.2-40.12,3.38-21.52-16.12-26.21-54.41-9.23-75.33,13.8-17,36.48-15.32,50.41,3.86C266.47,278.7,269.8,290.56,270,303.6Zm-61.37-7.5c-.15,11.66,2.93,22,10.34,30.74,11.45,13.56,27.85,11.69,36.16-4.06,8.88-16.84,4.75-40.92-9.24-53.78-10-9.17-22.86-7.83-30.51,3.32A39.17,39.17,0,0,0,208.64,296.1Z"/><path class="cls-4" d="M346,301.3a51.71,51.71,0,0,1-16.48,36.06c-15.24,14-36,11.21-47.07-6.22-13.27-20.91-9.4-52.41,8.53-69.46,14.41-13.71,34.92-11.72,46.23,4.67C343.47,275.37,346.17,285.55,346,301.3Zm-10-3.12c-.08-10.72-2.08-19.48-7.94-27.06-7.55-9.77-19.57-11-28.91-3-15,12.82-19.13,39.43-8.76,56.25,8.74,14.19,24,15.52,34.79,2.88C332.66,318.51,335.7,308.14,336,298.18Z"/><path class="cls-4" d="M214.78,361.38c.06,10.37-2.09,17.64-6.55,24.1-8.22,11.92-23.18,14.76-36.84,7.17-18.27-10.15-28.23-37.36-20.85-56.93,6.83-18.09,25.13-24.39,41.47-14C207.32,331.5,213.64,346.34,214.78,361.38Zm-9.87,1.68c-1.13-13.16-6.22-24.76-17.9-32.5s-25.24-2.27-27.87,11.69c-2.88,15.23,1.65,28.43,13.38,38.6,10.78,9.35,23.63,7.24,29.36-4.28C203.92,372.47,204.57,368.05,204.91,363.06Z"/><path class="cls-3" d="M396.21,351.72c-.65,14.21-5.82,27.59-18,37.33-20,16-44.49,6.41-47.71-19-2.36-18.67,4.3-34.42,19.14-46.18,8.75-6.94,18.81-9.56,29.43-4.75s15.21,14.34,16.79,25.46C396.14,346.57,396.07,348.58,396.21,351.72Zm-10.13-1.28a30.67,30.67,0,0,0-2-11.76c-3.58-9.73-12.44-13.82-22.08-10.26-16.66,6.15-27,31.88-19.19,47.92,5.19,10.73,16.35,13.77,26.29,6.88C380.47,375.32,385.27,363.87,386.08,350.44Z"/><path class="cls-3" d="M342,484.05c.24,5.35,4.28,4,6.35,2.63s4.74-3.06,5.8-6.14c1.24-3.61,3-7.22,8-6.58a28.93,28.93,0,0,1-7.6,12q-.31.28-.6.6a.39.39,0,0,1-.38.39,7.76,7.76,0,0,0-.63.65.29.29,0,0,1-.3.34,3.81,3.81,0,0,0-.69.7c-10,10-22.51,12.93-36.09,12.58a72.08,72.08,0,0,1-21.55-3.92c-14.75-5.08-29.25-4.72-44,.07-14.18,4.6-28.68,6-43.09.53-5.3-2-10.39-4.47-14.16-8.95,5,1.75,7.75-.34,9-5.13,3.67,1.9,7.15,4.11,11.19,5.35,11.7,3.6,23,1.13,34.32-1.75s22.89-6,34.86-3.39c6.15,1.36,12.29,2.81,18.4,4.4C315.11,492.18,329,492.7,342,484.05Z"/><path class="cls-3" d="M178.15,448.05c1.11,1,1.1,2-.05,2.91A2.79,2.79,0,0,1,178.15,448.05Z"/><path class="cls-3" d="M178.1,453a1.67,1.67,0,0,1,.06,2.9A2.78,2.78,0,0,1,178.1,453Z"/><polygon class="cls-3" points="180.99 470.55 181.03 470.58 180.91 470.45 180.99 470.55"/><path class="cls-4" d="M354,486.6q.28-.32.6-.6A.62.62,0,0,1,354,486.6Z"/><path class="cls-4" d="M353,487.64a7.76,7.76,0,0,1,.63-.65A.7.7,0,0,1,353,487.64Z"/><path class="cls-4" d="M352,488.68a3.81,3.81,0,0,1,.69-.7Z"/><path class="cls-3" d="M320.9,424.54c0,4.66,0,9.33,0,14,0,3.76-1.76,5.51-5.46,5.51-6.5,0-13,.16-19.48,0-3-.09-4.15.74-4,3.89.23,6,0,12,.11,18,.1,4.43-1.81,6.4-6.26,6.34-9.16-.12-18.32-.15-27.48,0-4.78.07-6.52-2.17-6.39-6.74.17-6-.06-12,.09-18,.06-2.63-.87-3.48-3.46-3.42-6.49.14-13,0-19.48.09-4.05.09-5.85-1.88-5.88-5.7-.06-9.49-.07-19-.09-28.48,0-4.15,2-6,6.2-5.92,6.33.09,12.66-.16,19,0,2.81.06,3.79-.85,3.71-3.71-.16-6.32.07-12.65,0-19-.06-4.16,2.1-5.59,5.91-5.56,9.49.07,19,.12,28.47.08,4,0,5.74,1.9,5.72,5.81,0,6.16.18,12.33,0,18.48-.1,3.1.94,4,4,3.95,6.15-.19,12.33.14,18.48-.08,4.83-.18,6.62,2,6.52,6.57s0,9.33,0,14Zm-22.77,10.38c3.34,0,6.67-.13,10,0,2.72.14,3.94-.66,3.81-3.62-.21-4.82-.29-9.67,0-14.49.19-3.32-1.26-3.87-4.1-3.8-6.16.13-12.34-.17-18.49,0-4.79.15-6.6-1.9-6.41-6.59.23-5.82-.07-11.66.13-17.49.11-3.13-.68-4.54-4.13-4.33a116.61,116.61,0,0,1-14,0c-3.5-.2-4.23,1.32-4.07,4.39.19,4,0,8,.06,12,.18,12.68.92,12-11.78,12-5.46,0-12.93-2.34-15.89.9-3.6,3.93-.71,11.41-1.19,17.33-.23,2.84.88,3.77,3.71,3.71,6.49-.15,13,.12,19.49,0,4.14-.09,5.71,1.82,5.66,5.73-.06,4.5,0,9,.08,13.5.08,9,.08,9,8.85,8.89,4.13-.06,9.49,1.82,12.08-.68,2.85-2.75.81-8.21.91-12.48C283.26,433,280.28,435.05,298.13,434.92Z"/></svg>