<svg id="Capa_1" data-name="Capa 1" xmlns="http://www.w3.org/2000/svg" viewBox="0 0 1024 768"><defs><style>.cls-1{fill:#45b1a1;}.cls-2{fill:#43ae9e;}.cls-3{fill:#46ad9f;}.cls-4{fill:#4bb09f;}</style></defs><path class="cls-1" d="M350.56,362.13A38.39,38.39,0,0,1,367.44,366c1.81.89,4.33,1.39,2.26,4.58-1.4,2.16-1.82,4.31-5.38,2.46a31.42,31.42,0,0,0-17.43-3.35c-5.24.45-8.65,3.27-9.31,7.5-.68,4.38,1.49,7.66,6.92,9.54,5.81,2,11.85,3.36,17.6,5.49,6,2.23,10,6.43,10.59,13.23s-2.77,12.44-9.34,15.6c-10.34,5-26.58,2.57-35.4-4.87-3.35-2.83,0-4.28.68-6.25,1.05-3,2.48-.92,3.68-.08a33.59,33.59,0,0,0,18.16,6.2,17.47,17.47,0,0,0,8.28-1.45c2.85-1.34,5-3.5,5.2-6.8.26-3.47-1.39-6.05-4.36-7.83a31,31,0,0,0-7.91-3c-4.32-1.21-8.67-2.32-12.93-3.73-6.15-2-9.7-6.38-10-12.89-.33-6.7,2.37-12,8.35-15.33A25.84,25.84,0,0,1,350.56,362.13Z"/><path class="cls-2" d="M511.11,392a30.4,30.4,0,0,1,18.82-27.65c11.21-4.67,25-2.38,33,5.71,1.06,1.08,4.29,2.23,1.44,4.57-2,1.6-3.43,4.19-6.89,1a22.53,22.53,0,0,0-31.85,1,23.47,23.47,0,0,0,.86,32.5c8.81,8.84,22.26,9.37,31.37.56,3.31-3.2,4.83-1,6.81.65,2.83,2.41-.46,3.48-1.49,4.57a28.79,28.79,0,0,1-31.63,7A32.5,32.5,0,0,1,511.11,392Z"/><path class="cls-1" d="M732,403.7c-.11-15.86,9.56-25.81,22.44-25.88,12.3-.08,21.6,9.59,21.89,22.51.07,2.82-.69,3.76-3.58,3.72-9.82-.16-19.65,0-29.48-.12-3.25-.05-3.7.94-2.42,3.77,4.11,9.1,15.57,11.8,24.74,5.78,1.22-.8,2-2.78,4.19-1.6,3.94,2.09,4.23,3.61.67,6.3-8,6-16.68,7.41-25.83,3.17C736,417.38,732.28,410.15,732,403.7Zm21.87-5.6c3.81,0,7.62-.08,11.43,0,2.52.08,3.12-.94,2.69-3.3-1.14-6.32-6.46-10.35-13.82-10.28-7,.06-13.29,5-14.15,11-.3,2.13.58,2.6,2.42,2.58C746.25,398.05,750.06,398.09,753.87,398.1Z"/><path class="cls-2" d="M594.83,377.81c13.2-.06,23.32,10.07,23.36,23.37,0,12.29-10.48,22.51-23.18,22.53a22.45,22.45,0,0,1-22.94-22.57C572,387.91,581.81,377.86,594.83,377.81Zm-15,22.35c-.25,8.95,6,16,14.55,16.29a15.2,15.2,0,0,0,15.74-15.12c.17-9.48-5.88-16.2-14.85-16.47C586.59,384.58,580.11,391,579.85,400.16Z"/><path class="cls-2" d="M403,423.77a23,23,0,0,1-23.13-23.12c0-12.87,10.11-22.82,23.33-22.86a23,23,0,0,1-.2,46ZM387.8,400.84c.06,8.7,6.88,15.87,15.15,15.94s15.12-7.22,15.06-16c-.07-9.32-6.5-15.94-15.48-15.94C393.94,384.86,387.72,391.6,387.8,400.84Z"/><path class="cls-3" d="M467.5,416.35c-4.83,5.64-11,8.31-18.46,7-7.76-1.37-12.39-6.61-12.7-15-.33-9,0-18-.16-26.94-.07-3.51,2.11-3,4.27-3.13s3.86,0,3.82,3c-.12,7.49-.07,15,0,22.46.09,8.38,3.37,12.26,10.31,12.42,7.59.17,13.27-4.76,13.57-12.29.29-7.14.28-14.31,0-21.45-.12-3.51,1.3-4,4.37-4.14,3.41-.1,3.72,1.53,3.71,4.23-.07,11.81,0,23.63,0,35.44,0,2.2,1.14,5-3.23,5.08-3.59.05-4.76-1.12-4.48-4.46A2,2,0,0,0,467.5,416.35Z"/><path class="cls-3" d="M636.36,386.13c5.08-5.94,10.49-8.55,17.3-8.18,8,.45,13,4.48,14.22,12.71,1.48,9.91.37,19.94.48,29.91,0,3.81-3.09,1.92-4.87,2.27-2.29.45-3.22-.58-3.18-3,.12-7.32.07-14.64,0-22-.1-8.65-3-12.15-10.15-12.57a12.37,12.37,0,0,0-13.41,11.88c-.46,7.3-.3,14.65-.09,22,.09,3.21-1.08,3.88-4,3.89s-4-.59-4-3.84c.17-12.14,0-24.29-.05-36.44,0-2.34-.52-4.58,3.3-4.57,3.37,0,4.51,1.16,4.19,4.32A28.09,28.09,0,0,0,636.36,386.13Z"/><path class="cls-4" d="M690.08,385.91c4.9-5.65,10-8.16,16.48-8,8.69.24,14.48,4.72,15.16,13.43.75,9.62.36,19.31.56,29,.06,3.37-2.29,2.58-4.14,2.61s-4.1.55-4-2.75c.14-7.33.09-14.66,0-22-.06-8.7-3.33-12.68-10.47-12.9a12.82,12.82,0,0,0-13.61,12.9c-.2,7,0,14,.23,21,.09,2.66-.44,4.06-3.49,3.82-2.52-.2-4.83.4-4.75-3.69.25-12.32.1-24.66,0-37,0-2.47.2-4.1,3.38-4.09,2.75,0,4.62.28,4.29,3.65A27.43,27.43,0,0,0,690.08,385.91Z"/><path class="cls-1" d="M806.55,377.83a20.42,20.42,0,0,1,15.11,6.51c.93,1,3.52,2.42,1.51,3.84-1.7,1.2-3.65,3.94-6.84,1.1-6.89-6.15-15.42-5.73-21.37.49a16.15,16.15,0,0,0-.5,21.39c5,5.92,13.43,6.84,20.28,2.2a20.83,20.83,0,0,1,2.81-2.06c2.4-1.09,4.38.59,5.74,1.92,1.66,1.62-.55,2.88-1.61,4-7.07,7.25-18.38,8.59-27.62,3.31a23.23,23.23,0,0,1-10.84-25.26C785.75,385,794.41,378.23,806.55,377.83Z"/><path class="cls-1" d="M836.22,399.89c0-2.5,0-5,0-7.5-.08-3.66,1.52-8.43-5.34-7.5-2.21.29-1.75-1.94-1.79-3.35s-.23-3.09,1.77-2.81c6.78.92,5.24-3.84,5.51-7.6.15-2-1.43-4.91,2.65-5.18,3.4-.22,5.62.32,4.93,4.43-.11.65.09,1.35,0,2-.95,5.11,1.16,6.81,6.21,6.32,1.84-.18,5-1.77,5.74,1.79.61,2.82-.06,4.54-3.75,4.56-8.19,0-8.19.27-8.22,8.45,0,5-.06,10,0,15,0,6.52,3,8.63,9.23,7,1.28-.33,3.24-3,4.21.56.71,2.57,1.11,4.58-2.2,6-10.66,4.5-18.74-.59-18.84-12.15,0-3.33,0-6.66,0-10Z"/><path class="cls-4" d="M491.12,391c0-9,.12-18-.07-27-.07-3.27,1.3-3.85,4.15-3.85s3.84.72,3.82,3.66c-.08,18.49-.08,37,.1,55.49,0,3.42-1.55,3.58-4.23,3.72-3.18.16-3.94-1-3.89-4,.15-9.33.05-18.67.05-28Z"/><path class="cls-3" d="M296.25,373c2-12.1,1.17-23.36-9.65-31.5-10.3-7.76-27.31-6.86-36.67,1.77-1.56,1.44-2.35,2.61-.82,4.57,5.39,6.91,5.69,14.9,4.76,23.12l-5-2A23.53,23.53,0,0,0,245,352.48c-.8-1.21-1.79-2.81-3.13-.33-3.2,5.93-5.87,11.92-2.46,18.71l-5.87,1.3c-4.07-8.7-.82-16.31,4.09-23.28,2-2.85,1.46-4-.79-6-9.23-8-24.95-9-35-2.27-10.52,7.08-14.56,20.12-10.22,33.26,3.09,9.39,9.08,17,15.56,24.17,7.26,8.08,16,14.54,23.84,22,1.11,1.07,4.51,1.94,1.86,4.91-2.46,2.75-4.11,1.14-6.13-.58C213.54,413.16,200,402.31,191,387.08c-5.74-9.73-9.35-20-6.61-31.43,5.76-24,34.13-33.66,54.58-18.44,3.48,2.58,5.28,2.91,9,.14,11.65-8.62,24.59-10,37.64-3.43,12.11,6.1,17.8,16.61,17.94,30a22.86,22.86,0,0,1-3.44,13.15l-.18-.16C300.42,374,299.32,372.59,296.25,373Z"/><path class="cls-1" d="M292.31,393.11c-9.43,14.2-22.28,25-35.65,35.15a223.72,223.72,0,0,1-26.29,17.15c-2,1.13-3.47,2.76-5.42-.64-1.85-3.21-.25-3.84,2-5,17.91-9.45,34.2-21.12,48.25-35.78,4-4.19,7.75-8.65,11.61-13C289.14,390.33,290.23,393,292.31,393.11Z"/><path class="cls-1" d="M248.83,369l5,2c-1.18,5.16-5,7.23-9.71,7.53s-8.65-1.6-10.64-6.33l5.86-1.3C243.31,374.06,246.35,372.9,248.83,369Z"/><path class="cls-3" d="M292.31,393.11c-2.08-.09-3.17-2.78-5.54-2.11l8.9-15.7c1.3,3.47-2.31,5.87-2.22,9.2,2.67.15,2.59-2.34,3.82-3.42s0-3.88,2.67-4.14l.18.16C299.82,383.56,296,388.3,292.31,393.11Z"/><path class="cls-1" d="M299.94,376.94c-2.66.26-1.4,3-2.67,4.14s-1.15,3.57-3.82,3.42c-.09-3.33,3.52-5.73,2.22-9.2.19-.77.38-1.54.58-2.3C299.32,372.59,300.42,374,299.94,376.94Z"/></svg>